<mxfile host="Electron" agent="Mozilla/5.0 (Windows NT 10.0; Win64; x64) AppleWebKit/537.36 (KHTML, like Gecko) draw.io/28.1.2 Chrome/138.0.7204.243 Electron/37.4.0 Safari/537.36" version="28.1.2">
  <diagram name="Página-1" id="OtPKrZpOz-xzSU6ydnuz">
    <mxGraphModel dx="1693" dy="537" grid="1" gridSize="10" guides="1" tooltips="1" connect="1" arrows="1" fold="1" page="1" pageScale="1" pageWidth="827" pageHeight="1169" math="0" shadow="0">
      <root>
        <mxCell id="0" />
        <mxCell id="1" parent="0" />
        <mxCell id="q5E25fKQz_XIpoJjsI8S-20" value="" style="edgeStyle=orthogonalEdgeStyle;rounded=0;orthogonalLoop=1;jettySize=auto;html=1;" parent="1" source="q5E25fKQz_XIpoJjsI8S-1" target="q5E25fKQz_XIpoJjsI8S-19" edge="1">
          <mxGeometry relative="1" as="geometry" />
        </mxCell>
        <mxCell id="q5E25fKQz_XIpoJjsI8S-1" value="TDA Tablero" style="rounded=0;whiteSpace=wrap;html=1;" parent="1" vertex="1">
          <mxGeometry x="200" y="230" width="120" height="60" as="geometry" />
        </mxCell>
        <mxCell id="q5E25fKQz_XIpoJjsI8S-42" value="" style="edgeStyle=orthogonalEdgeStyle;rounded=0;orthogonalLoop=1;jettySize=auto;html=1;" parent="1" source="q5E25fKQz_XIpoJjsI8S-2" target="q5E25fKQz_XIpoJjsI8S-29" edge="1">
          <mxGeometry relative="1" as="geometry" />
        </mxCell>
        <mxCell id="q5E25fKQz_XIpoJjsI8S-2" value="TDA Partida" style="rounded=0;whiteSpace=wrap;html=1;" parent="1" vertex="1">
          <mxGeometry x="610" y="230" width="120" height="60" as="geometry" />
        </mxCell>
        <mxCell id="q5E25fKQz_XIpoJjsI8S-61" value="" style="edgeStyle=orthogonalEdgeStyle;rounded=0;orthogonalLoop=1;jettySize=auto;html=1;" parent="1" source="q5E25fKQz_XIpoJjsI8S-3" target="q5E25fKQz_XIpoJjsI8S-52" edge="1">
          <mxGeometry relative="1" as="geometry" />
        </mxCell>
        <mxCell id="q5E25fKQz_XIpoJjsI8S-3" value="TDA Juego" style="rounded=0;whiteSpace=wrap;html=1;" parent="1" vertex="1">
          <mxGeometry x="977.5" y="230" width="120" height="60" as="geometry" />
        </mxCell>
        <mxCell id="q5E25fKQz_XIpoJjsI8S-8" style="edgeStyle=orthogonalEdgeStyle;rounded=0;orthogonalLoop=1;jettySize=auto;html=1;" parent="1" source="q5E25fKQz_XIpoJjsI8S-4" target="q5E25fKQz_XIpoJjsI8S-1" edge="1">
          <mxGeometry relative="1" as="geometry" />
        </mxCell>
        <mxCell id="q5E25fKQz_XIpoJjsI8S-4" value="matriz[]" style="ellipse;whiteSpace=wrap;html=1;" parent="1" vertex="1">
          <mxGeometry x="80" y="180" width="70" height="40" as="geometry" />
        </mxCell>
        <mxCell id="q5E25fKQz_XIpoJjsI8S-9" style="edgeStyle=orthogonalEdgeStyle;rounded=0;orthogonalLoop=1;jettySize=auto;html=1;entryX=0;entryY=0.5;entryDx=0;entryDy=0;" parent="1" source="q5E25fKQz_XIpoJjsI8S-5" target="q5E25fKQz_XIpoJjsI8S-1" edge="1">
          <mxGeometry relative="1" as="geometry" />
        </mxCell>
        <mxCell id="q5E25fKQz_XIpoJjsI8S-5" value="tamaño" style="ellipse;whiteSpace=wrap;html=1;" parent="1" vertex="1">
          <mxGeometry x="70" y="230" width="70" height="40" as="geometry" />
        </mxCell>
        <mxCell id="q5E25fKQz_XIpoJjsI8S-19" value="Words" style="shape=hexagon;perimeter=hexagonPerimeter2;whiteSpace=wrap;html=1;fixedSize=1;" parent="1" vertex="1">
          <mxGeometry x="215" y="320" width="90" height="40" as="geometry" />
        </mxCell>
        <mxCell id="q5E25fKQz_XIpoJjsI8S-28" style="edgeStyle=orthogonalEdgeStyle;rounded=0;orthogonalLoop=1;jettySize=auto;html=1;entryX=0;entryY=0.5;entryDx=0;entryDy=0;" parent="1" source="q5E25fKQz_XIpoJjsI8S-21" target="q5E25fKQz_XIpoJjsI8S-19" edge="1">
          <mxGeometry relative="1" as="geometry" />
        </mxCell>
        <mxCell id="q5E25fKQz_XIpoJjsI8S-21" value="IniciarTablero( )" style="rounded=0;whiteSpace=wrap;html=1;" parent="1" vertex="1">
          <mxGeometry x="50" y="380" width="100" height="40" as="geometry" />
        </mxCell>
        <mxCell id="q5E25fKQz_XIpoJjsI8S-22" value="intercambiarEstadoCasilla( )" style="rounded=0;whiteSpace=wrap;html=1;" parent="1" vertex="1">
          <mxGeometry x="-10" y="450" width="190" height="40" as="geometry" />
        </mxCell>
        <mxCell id="q5E25fKQz_XIpoJjsI8S-23" value="presionarCasilla( )" style="rounded=0;whiteSpace=wrap;html=1;" parent="1" vertex="1">
          <mxGeometry x="310" y="410" width="110" height="40" as="geometry" />
        </mxCell>
        <mxCell id="q5E25fKQz_XIpoJjsI8S-25" style="edgeStyle=orthogonalEdgeStyle;rounded=0;orthogonalLoop=1;jettySize=auto;html=1;entryX=0.5;entryY=1;entryDx=0;entryDy=0;" parent="1" source="q5E25fKQz_XIpoJjsI8S-24" target="q5E25fKQz_XIpoJjsI8S-19" edge="1">
          <mxGeometry relative="1" as="geometry">
            <Array as="points">
              <mxPoint x="280" y="415" />
              <mxPoint x="260" y="415" />
            </Array>
          </mxGeometry>
        </mxCell>
        <mxCell id="q5E25fKQz_XIpoJjsI8S-24" value="verificarCompletado( )" style="rounded=0;whiteSpace=wrap;html=1;" parent="1" vertex="1">
          <mxGeometry x="215" y="470" width="175" height="40" as="geometry" />
        </mxCell>
        <mxCell id="q5E25fKQz_XIpoJjsI8S-26" style="edgeStyle=orthogonalEdgeStyle;rounded=0;orthogonalLoop=1;jettySize=auto;html=1;entryX=0.833;entryY=1;entryDx=0;entryDy=0;entryPerimeter=0;" parent="1" source="q5E25fKQz_XIpoJjsI8S-23" target="q5E25fKQz_XIpoJjsI8S-19" edge="1">
          <mxGeometry relative="1" as="geometry" />
        </mxCell>
        <mxCell id="q5E25fKQz_XIpoJjsI8S-27" style="edgeStyle=orthogonalEdgeStyle;rounded=0;orthogonalLoop=1;jettySize=auto;html=1;entryX=0.211;entryY=0.975;entryDx=0;entryDy=0;entryPerimeter=0;" parent="1" source="q5E25fKQz_XIpoJjsI8S-22" target="q5E25fKQz_XIpoJjsI8S-19" edge="1">
          <mxGeometry relative="1" as="geometry">
            <Array as="points">
              <mxPoint x="200" y="470" />
              <mxPoint x="200" y="359" />
            </Array>
          </mxGeometry>
        </mxCell>
        <mxCell id="q5E25fKQz_XIpoJjsI8S-29" value="Words" style="shape=hexagon;perimeter=hexagonPerimeter2;whiteSpace=wrap;html=1;fixedSize=1;" parent="1" vertex="1">
          <mxGeometry x="625" y="320" width="90" height="40" as="geometry" />
        </mxCell>
        <mxCell id="q5E25fKQz_XIpoJjsI8S-30" style="edgeStyle=orthogonalEdgeStyle;rounded=0;orthogonalLoop=1;jettySize=auto;html=1;entryX=0;entryY=0.5;entryDx=0;entryDy=0;" parent="1" source="q5E25fKQz_XIpoJjsI8S-31" target="q5E25fKQz_XIpoJjsI8S-29" edge="1">
          <mxGeometry relative="1" as="geometry" />
        </mxCell>
        <mxCell id="q5E25fKQz_XIpoJjsI8S-31" value="IniciarNivel( )" style="rounded=0;whiteSpace=wrap;html=1;" parent="1" vertex="1">
          <mxGeometry x="500" y="380" width="80" height="40" as="geometry" />
        </mxCell>
        <mxCell id="q5E25fKQz_XIpoJjsI8S-32" value="mostrarNivel( )" style="rounded=0;whiteSpace=wrap;html=1;" parent="1" vertex="1">
          <mxGeometry x="500" y="450" width="110" height="40" as="geometry" />
        </mxCell>
        <mxCell id="q5E25fKQz_XIpoJjsI8S-33" value="usarPika( )" style="rounded=0;whiteSpace=wrap;html=1;" parent="1" vertex="1">
          <mxGeometry x="740" y="410" width="110" height="40" as="geometry" />
        </mxCell>
        <mxCell id="q5E25fKQz_XIpoJjsI8S-34" style="edgeStyle=orthogonalEdgeStyle;rounded=0;orthogonalLoop=1;jettySize=auto;html=1;entryX=0.5;entryY=1;entryDx=0;entryDy=0;" parent="1" source="q5E25fKQz_XIpoJjsI8S-35" target="q5E25fKQz_XIpoJjsI8S-29" edge="1">
          <mxGeometry relative="1" as="geometry">
            <Array as="points">
              <mxPoint x="710" y="415" />
              <mxPoint x="690" y="415" />
            </Array>
          </mxGeometry>
        </mxCell>
        <mxCell id="q5E25fKQz_XIpoJjsI8S-35" value="actualizarTiempo( )" style="rounded=0;whiteSpace=wrap;html=1;" parent="1" vertex="1">
          <mxGeometry x="645" y="470" width="175" height="40" as="geometry" />
        </mxCell>
        <mxCell id="q5E25fKQz_XIpoJjsI8S-36" style="edgeStyle=orthogonalEdgeStyle;rounded=0;orthogonalLoop=1;jettySize=auto;html=1;entryX=0.833;entryY=1;entryDx=0;entryDy=0;entryPerimeter=0;" parent="1" source="q5E25fKQz_XIpoJjsI8S-33" target="q5E25fKQz_XIpoJjsI8S-29" edge="1">
          <mxGeometry relative="1" as="geometry" />
        </mxCell>
        <mxCell id="q5E25fKQz_XIpoJjsI8S-37" style="edgeStyle=orthogonalEdgeStyle;rounded=0;orthogonalLoop=1;jettySize=auto;html=1;entryX=0.211;entryY=0.975;entryDx=0;entryDy=0;entryPerimeter=0;" parent="1" source="q5E25fKQz_XIpoJjsI8S-32" target="q5E25fKQz_XIpoJjsI8S-29" edge="1">
          <mxGeometry relative="1" as="geometry">
            <Array as="points">
              <mxPoint x="630" y="470" />
              <mxPoint x="630" y="359" />
            </Array>
          </mxGeometry>
        </mxCell>
        <mxCell id="q5E25fKQz_XIpoJjsI8S-38" value="tiempo" style="ellipse;whiteSpace=wrap;html=1;" parent="1" vertex="1">
          <mxGeometry x="620" y="160" width="70" height="40" as="geometry" />
        </mxCell>
        <mxCell id="q5E25fKQz_XIpoJjsI8S-39" value="dificultad" style="ellipse;whiteSpace=wrap;html=1;" parent="1" vertex="1">
          <mxGeometry x="505" y="150" width="70" height="40" as="geometry" />
        </mxCell>
        <mxCell id="q5E25fKQz_XIpoJjsI8S-40" style="edgeStyle=orthogonalEdgeStyle;rounded=0;orthogonalLoop=1;jettySize=auto;html=1;entryX=0.042;entryY=0.133;entryDx=0;entryDy=0;entryPerimeter=0;" parent="1" source="q5E25fKQz_XIpoJjsI8S-39" target="q5E25fKQz_XIpoJjsI8S-2" edge="1">
          <mxGeometry relative="1" as="geometry" />
        </mxCell>
        <mxCell id="q5E25fKQz_XIpoJjsI8S-41" style="edgeStyle=orthogonalEdgeStyle;rounded=0;orthogonalLoop=1;jettySize=auto;html=1;entryX=0.342;entryY=-0.05;entryDx=0;entryDy=0;entryPerimeter=0;" parent="1" source="q5E25fKQz_XIpoJjsI8S-38" target="q5E25fKQz_XIpoJjsI8S-2" edge="1">
          <mxGeometry relative="1" as="geometry" />
        </mxCell>
        <mxCell id="q5E25fKQz_XIpoJjsI8S-43" value="&quot;pikas&quot;" style="ellipse;whiteSpace=wrap;html=1;" parent="1" vertex="1">
          <mxGeometry x="720" y="150" width="70" height="40" as="geometry" />
        </mxCell>
        <mxCell id="q5E25fKQz_XIpoJjsI8S-44" style="edgeStyle=orthogonalEdgeStyle;rounded=0;orthogonalLoop=1;jettySize=auto;html=1;entryX=0.867;entryY=0.067;entryDx=0;entryDy=0;entryPerimeter=0;" parent="1" source="q5E25fKQz_XIpoJjsI8S-43" target="q5E25fKQz_XIpoJjsI8S-2" edge="1">
          <mxGeometry relative="1" as="geometry" />
        </mxCell>
        <mxCell id="q5E25fKQz_XIpoJjsI8S-49" value="" style="edgeStyle=orthogonalEdgeStyle;rounded=0;orthogonalLoop=1;jettySize=auto;html=1;" parent="1" source="q5E25fKQz_XIpoJjsI8S-45" target="q5E25fKQz_XIpoJjsI8S-3" edge="1">
          <mxGeometry relative="1" as="geometry" />
        </mxCell>
        <mxCell id="q5E25fKQz_XIpoJjsI8S-45" value="Partida" style="ellipse;whiteSpace=wrap;html=1;" parent="1" vertex="1">
          <mxGeometry x="1002.5" y="160" width="70" height="40" as="geometry" />
        </mxCell>
        <mxCell id="q5E25fKQz_XIpoJjsI8S-46" value="Menú" style="ellipse;whiteSpace=wrap;html=1;" parent="1" vertex="1">
          <mxGeometry x="887.5" y="150" width="70" height="40" as="geometry" />
        </mxCell>
        <mxCell id="q5E25fKQz_XIpoJjsI8S-48" value="Estado General" style="ellipse;whiteSpace=wrap;html=1;" parent="1" vertex="1">
          <mxGeometry x="1102.5" y="150" width="70" height="40" as="geometry" />
        </mxCell>
        <mxCell id="q5E25fKQz_XIpoJjsI8S-50" style="edgeStyle=orthogonalEdgeStyle;rounded=0;orthogonalLoop=1;jettySize=auto;html=1;entryX=1;entryY=0.367;entryDx=0;entryDy=0;entryPerimeter=0;" parent="1" source="q5E25fKQz_XIpoJjsI8S-48" target="q5E25fKQz_XIpoJjsI8S-3" edge="1">
          <mxGeometry relative="1" as="geometry">
            <Array as="points">
              <mxPoint x="1138" y="210" />
              <mxPoint x="1110" y="210" />
              <mxPoint x="1110" y="252" />
            </Array>
          </mxGeometry>
        </mxCell>
        <mxCell id="q5E25fKQz_XIpoJjsI8S-51" style="edgeStyle=orthogonalEdgeStyle;rounded=0;orthogonalLoop=1;jettySize=auto;html=1;entryX=-0.008;entryY=0.4;entryDx=0;entryDy=0;entryPerimeter=0;" parent="1" source="q5E25fKQz_XIpoJjsI8S-46" target="q5E25fKQz_XIpoJjsI8S-3" edge="1">
          <mxGeometry relative="1" as="geometry">
            <Array as="points">
              <mxPoint x="923" y="210" />
              <mxPoint x="950" y="210" />
              <mxPoint x="950" y="254" />
            </Array>
          </mxGeometry>
        </mxCell>
        <mxCell id="q5E25fKQz_XIpoJjsI8S-52" value="Words" style="shape=hexagon;perimeter=hexagonPerimeter2;whiteSpace=wrap;html=1;fixedSize=1;" parent="1" vertex="1">
          <mxGeometry x="995" y="330" width="90" height="40" as="geometry" />
        </mxCell>
        <mxCell id="q5E25fKQz_XIpoJjsI8S-53" style="edgeStyle=orthogonalEdgeStyle;rounded=0;orthogonalLoop=1;jettySize=auto;html=1;entryX=0;entryY=0.5;entryDx=0;entryDy=0;" parent="1" source="q5E25fKQz_XIpoJjsI8S-54" target="q5E25fKQz_XIpoJjsI8S-52" edge="1">
          <mxGeometry relative="1" as="geometry" />
        </mxCell>
        <mxCell id="q5E25fKQz_XIpoJjsI8S-54" value="IniciarJuego( )" style="rounded=0;whiteSpace=wrap;html=1;" parent="1" vertex="1">
          <mxGeometry x="870" y="390" width="80" height="40" as="geometry" />
        </mxCell>
        <mxCell id="q5E25fKQz_XIpoJjsI8S-55" value="jugarNivel( )" style="rounded=0;whiteSpace=wrap;html=1;" parent="1" vertex="1">
          <mxGeometry x="900" y="460" width="80" height="40" as="geometry" />
        </mxCell>
        <mxCell id="q5E25fKQz_XIpoJjsI8S-56" value="mostrarMenu( )" style="rounded=0;whiteSpace=wrap;html=1;" parent="1" vertex="1">
          <mxGeometry x="1110" y="420" width="110" height="40" as="geometry" />
        </mxCell>
        <mxCell id="q5E25fKQz_XIpoJjsI8S-57" style="edgeStyle=orthogonalEdgeStyle;rounded=0;orthogonalLoop=1;jettySize=auto;html=1;entryX=0.5;entryY=1;entryDx=0;entryDy=0;" parent="1" source="q5E25fKQz_XIpoJjsI8S-58" target="q5E25fKQz_XIpoJjsI8S-52" edge="1">
          <mxGeometry relative="1" as="geometry">
            <Array as="points">
              <mxPoint x="1080" y="425" />
              <mxPoint x="1060" y="425" />
            </Array>
          </mxGeometry>
        </mxCell>
        <mxCell id="q5E25fKQz_XIpoJjsI8S-58" value="finalizarJuego( )" style="rounded=0;whiteSpace=wrap;html=1;" parent="1" vertex="1">
          <mxGeometry x="1015" y="480" width="175" height="40" as="geometry" />
        </mxCell>
        <mxCell id="q5E25fKQz_XIpoJjsI8S-59" style="edgeStyle=orthogonalEdgeStyle;rounded=0;orthogonalLoop=1;jettySize=auto;html=1;entryX=0.833;entryY=1;entryDx=0;entryDy=0;entryPerimeter=0;" parent="1" source="q5E25fKQz_XIpoJjsI8S-56" target="q5E25fKQz_XIpoJjsI8S-52" edge="1">
          <mxGeometry relative="1" as="geometry" />
        </mxCell>
        <mxCell id="q5E25fKQz_XIpoJjsI8S-60" style="edgeStyle=orthogonalEdgeStyle;rounded=0;orthogonalLoop=1;jettySize=auto;html=1;entryX=0.211;entryY=0.975;entryDx=0;entryDy=0;entryPerimeter=0;" parent="1" source="q5E25fKQz_XIpoJjsI8S-55" target="q5E25fKQz_XIpoJjsI8S-52" edge="1">
          <mxGeometry relative="1" as="geometry">
            <Array as="points">
              <mxPoint x="1000" y="480" />
              <mxPoint x="1000" y="369" />
            </Array>
          </mxGeometry>
        </mxCell>
        <mxCell id="q5E25fKQz_XIpoJjsI8S-64" value="" style="ellipse;whiteSpace=wrap;html=1;" parent="1" vertex="1">
          <mxGeometry x="325" y="710" width="430" height="430" as="geometry" />
        </mxCell>
        <mxCell id="q5E25fKQz_XIpoJjsI8S-65" value="" style="ellipse;whiteSpace=wrap;html=1;" parent="1" vertex="1">
          <mxGeometry x="430" y="790" width="310" height="310" as="geometry" />
        </mxCell>
        <mxCell id="q5E25fKQz_XIpoJjsI8S-66" value="" style="ellipse;whiteSpace=wrap;html=1;" parent="1" vertex="1">
          <mxGeometry x="549" y="913" width="170" height="150" as="geometry" />
        </mxCell>
        <mxCell id="q5E25fKQz_XIpoJjsI8S-67" value="&lt;font style=&quot;font-size: 18px;&quot;&gt;&lt;b&gt;TDA Juego&lt;/b&gt;&lt;/font&gt;" style="text;html=1;align=center;verticalAlign=middle;whiteSpace=wrap;rounded=0;" parent="1" vertex="1">
          <mxGeometry x="354" y="800" width="120" height="50" as="geometry" />
        </mxCell>
        <mxCell id="q5E25fKQz_XIpoJjsI8S-68" value="&lt;font style=&quot;font-size: 18px;&quot;&gt;&lt;b&gt;TDA Partida&lt;/b&gt;&lt;/font&gt;" style="text;html=1;align=center;verticalAlign=middle;whiteSpace=wrap;rounded=0;" parent="1" vertex="1">
          <mxGeometry x="490" y="850" width="120" height="50" as="geometry" />
        </mxCell>
        <mxCell id="q5E25fKQz_XIpoJjsI8S-69" value="&lt;font style=&quot;font-size: 18px;&quot;&gt;&lt;b&gt;TDA Tablero&lt;/b&gt;&lt;/font&gt;" style="text;html=1;align=center;verticalAlign=middle;whiteSpace=wrap;rounded=0;" parent="1" vertex="1">
          <mxGeometry x="577" y="964" width="120" height="50" as="geometry" />
        </mxCell>
        <mxCell id="q5E25fKQz_XIpoJjsI8S-72" style="edgeStyle=orthogonalEdgeStyle;rounded=0;orthogonalLoop=1;jettySize=auto;html=1;entryX=0;entryY=0.5;entryDx=0;entryDy=0;" parent="1" source="q5E25fKQz_XIpoJjsI8S-71" target="q5E25fKQz_XIpoJjsI8S-64" edge="1">
          <mxGeometry relative="1" as="geometry" />
        </mxCell>
        <mxCell id="q5E25fKQz_XIpoJjsI8S-71" value="Jugador" style="shape=umlActor;verticalLabelPosition=bottom;verticalAlign=top;html=1;outlineConnect=0;" parent="1" vertex="1">
          <mxGeometry x="210" y="840" width="30" height="60" as="geometry" />
        </mxCell>
        <mxCell id="q5E25fKQz_XIpoJjsI8S-73" value="&lt;font style=&quot;font-size: 24px;&quot;&gt;&lt;font face=&quot;Tahoma&quot;&gt;&lt;u&gt;&lt;strong style=&quot;&quot; data-end=&quot;3348&quot; data-start=&quot;3339&quot;&gt;Juego&lt;/strong&gt;&amp;nbsp;&lt;/u&gt;&lt;/font&gt;se encarga de dirigir el estado del programa.&lt;/font&gt;&lt;div&gt;&lt;font style=&quot;font-size: 24px;&quot;&gt;&lt;strong style=&quot;color: light-dark(rgb(0, 0, 0), rgb(255, 255, 255)); background-color: transparent;&quot; data-end=&quot;3394&quot; data-start=&quot;3383&quot;&gt;&lt;u&gt;Partida&lt;/u&gt;&lt;/strong&gt;&lt;span style=&quot;color: light-dark(rgb(0, 0, 0), rgb(255, 255, 255)); background-color: transparent;&quot;&gt;&amp;nbsp;administra los recursos, tiempo y niveles.&lt;/span&gt;&lt;/font&gt;&lt;/div&gt;&lt;div&gt;&lt;font style=&quot;font-size: 24px;&quot;&gt;&lt;strong style=&quot;color: light-dark(rgb(0, 0, 0), rgb(255, 255, 255)); background-color: transparent;&quot; data-end=&quot;3440&quot; data-start=&quot;3429&quot;&gt;&lt;u&gt;Tablero&lt;/u&gt;&lt;/strong&gt;&lt;span style=&quot;color: light-dark(rgb(0, 0, 0), rgb(255, 255, 255)); background-color: transparent;&quot;&gt;&amp;nbsp;se enfoca solo en la lógica del juego.&lt;/span&gt;&lt;/font&gt;&lt;/div&gt;" style="text;html=1;align=center;verticalAlign=middle;whiteSpace=wrap;rounded=0;" parent="1" vertex="1">
          <mxGeometry x="800" y="850" width="340" height="190" as="geometry" />
        </mxCell>
        <mxCell id="q5E25fKQz_XIpoJjsI8S-75" style="edgeStyle=orthogonalEdgeStyle;rounded=0;orthogonalLoop=1;jettySize=auto;html=1;entryX=0.375;entryY=1;entryDx=0;entryDy=0;" parent="1" source="q5E25fKQz_XIpoJjsI8S-74" target="q5E25fKQz_XIpoJjsI8S-29" edge="1">
          <mxGeometry relative="1" as="geometry">
            <Array as="points">
              <mxPoint x="640" y="440" />
              <mxPoint x="659" y="440" />
            </Array>
          </mxGeometry>
        </mxCell>
        <mxCell id="q5E25fKQz_XIpoJjsI8S-74" value="verificarNivel( )" style="rounded=0;whiteSpace=wrap;html=1;" parent="1" vertex="1">
          <mxGeometry x="544" y="520" width="175" height="40" as="geometry" />
        </mxCell>
        <mxCell id="q5E25fKQz_XIpoJjsI8S-77" value="" style="edgeStyle=orthogonalEdgeStyle;rounded=0;orthogonalLoop=1;jettySize=auto;html=1;" parent="1" source="q5E25fKQz_XIpoJjsI8S-76" target="q5E25fKQz_XIpoJjsI8S-1" edge="1">
          <mxGeometry relative="1" as="geometry" />
        </mxCell>
        <mxCell id="q5E25fKQz_XIpoJjsI8S-76" value="casillas" style="ellipse;whiteSpace=wrap;html=1;" parent="1" vertex="1">
          <mxGeometry x="255" y="130" width="70" height="40" as="geometry" />
        </mxCell>
      </root>
    </mxGraphModel>
  </diagram>
</mxfile>
